# xmcd
#
# Track frame offsets:
#	182
#	15805
#	32690
#	52492
#	68685
#	84535
#	101437
#	119005
#	138430
#	160327
#	179910
#	195832
#	213945
#	228850
#	242337
#
# Disc length: 3402 seconds
#
# Revision: 2
# Processed by: cddbd v1.5.2PL0 Copyright (c) Steve Scherf et al.
# Submitted via: audiograbber 1.83.01
#
DISCID=c40d480f
DTITLE=Various Artist - Music Maestro #6017
DYEAR=1900
DGENRE=Country
TTITLE0=Boot Scootin' Boogie
TTITLE1=A Picture Of Me Without You
TTITLE2=We Shell Be Free
TTITLE3=Shake The Sugar Tree
TTITLE4=Sure Love
TTITLE5=For My Broken Heart
TTITLE6=Only The Wind
TTITLE7=She's In Love With Boy
TTITLE8=Fancy
TTITLE9=Some Gave All
TTITLE10=Jealous Bone
TTITLE11=I Saw The Light
TTITLE12=Is This Life
TTITLE13=Next Thing Smokin'
TTITLE14=Wrong Side Of Memphis
EXTD=
EXTT0=
EXTT1=
EXTT2=
EXTT3=
EXTT4=
EXTT5=
EXTT6=
EXTT7=
EXTT8=
EXTT9=
EXTT10=
EXTT11=
EXTT12=
EXTT13=
EXTT14=
PLAYORDER=
